<svg id="visual" viewBox="0 0 1440 780" width="1440" height="780" xmlns="http://www.w3.org/2000/svg" xmlns:xlink="http://www.w3.org/1999/xlink" version="1.1"><path d="M0 188L131 251L262 173L393 297L524 243L655 149L785 149L916 165L1047 188L1178 274L1309 141L1440 344L1440 0L1309 0L1178 0L1047 0L916 0L785 0L655 0L524 0L393 0L262 0L131 0L0 0Z" fill="#292929"></path><path d="M0 266L131 375L262 336L393 446L524 313L655 235L785 266L916 258L1047 336L1178 383L1309 282L1440 407L1440 342L1309 139L1178 272L1047 186L916 163L785 147L655 147L524 241L393 295L262 171L131 249L0 186Z" fill="#232323"></path><path d="M0 352L131 555L262 438L393 563L524 485L655 391L785 446L916 469L1047 485L1178 570L1309 477L1440 500L1440 405L1309 280L1178 381L1047 334L916 256L785 264L655 233L524 311L393 444L262 334L131 373L0 264Z" fill="#1e1e1e"></path><path d="M0 664L131 726L262 726L393 695L524 648L655 648L785 687L916 726L1047 726L1178 656L1309 719L1440 695L1440 498L1309 475L1178 568L1047 483L916 467L785 444L655 389L524 483L393 561L262 436L131 553L0 350Z" fill="#191919"></path><path d="M0 781L131 781L262 781L393 781L524 781L655 781L785 781L916 781L1047 781L1178 781L1309 781L1440 781L1440 693L1309 717L1178 654L1047 724L916 724L785 685L655 646L524 646L393 693L262 724L131 724L0 662Z" fill="#141414"></path></svg>